<svg xmlns="http://www.w3.org/2000/svg" xmlns:xlink="http://www.w3.org/1999/xlink" width="951.049" height="447.167" viewBox="0 0 951.049 447.167">
  <defs>
    <clipPath id="clip-path">
      <rect id="Rectangle_122" data-name="Rectangle 122" width="457.655" height="297.729" fill="none"/>
    </clipPath>
  </defs>
  <g id="pricing" transform="translate(-152.3 -281.934)">
    <path id="Path_327" data-name="Path 327" d="M382.533,1037.277s44.688,26.626,39.223,34.64-47.658-33.261-47.658-33.261-48.568,20.508-59.551,35.687c0,0,56.918,10.943,49.65,17.365s-67.025-2.213-67.025-2.213-38.994,30.568-22.527,55.544,35.644,25.059,41.771,20.84,36.317-39.353,40.029-34.469-9.766,34.712-25.363,44.211c0,0,48.35,17.019,63.259-3.52s8.36-36.756,17.8-49.281,20.16-18.31,18.143-9.658-21.647,26.627-21.955,43.208-2.113,28.63,17.013,14.223,44.726-47.977,36.771-66.237l-.995-2.284a9.538,9.538,0,0,1,.995,2.284c4.755-1.575,18.071,1.527,27.974,4.263,1.6.559,3.9,1.237,7.116,2.061h0c1.4.425,2.547.781,3.342,1.033,20.979,7.494,44.86,34.429,44.86,34.429l4.325-2.867c-19.643-32.165-54.7-37.136-54.7-37.136-25.939-6.055-40.87-20.043-40.87-20.043s10.909-50.556-28.716-57.462C425.449,1028.631,398.528,1027.327,382.533,1037.277Z" transform="translate(-79.824 -503.703)" fill="#afcdfb" opacity="0.5"/>
    <path id="Path_328" data-name="Path 328" d="M2221.869,471.478c-9.317-34.422-67.369-23.665-67.369-23.665s-39.418,60.239-50.885,61.673,23.65-58.087,23.65-58.087c-22.218-2.151-78.836,25.1-78.836,25.1s3.583,70.278-7.884,68.844,0-62.39,0-62.39c-21.5,6.454-41.568,31.553-41.568,31.553-25.084,40.876,28.668,71,28.668,71s.717,24.382-14.334,52.35h0a83.02,83.02,0,0,0-6.85,13.941h5.862q.719-2.359,1.591-4.553a.035.035,0,0,1,.011-.026c.008-.021.018-.042.026-.063.4-.906.979-2.2,1.7-3.767l0-.006s0,0,0-.007c1.791-3.508,3-6.1,3.766-7.97a.087.087,0,0,0,.006-.018c5.366-11.011,13.1-25.358,18.252-28.368a11.364,11.364,0,0,1-1.255-2.69l1.255,2.69c10.033,21.514,60.2,25.1,88.153,19.362s15.767-13.625.717-26.428-46.585-9.428-55.9-14.448,4.3-10.04,22.934-8.605,27.951,20.08,58.052,22.948,53.035-53.784,53.035-53.784c-20.784,6.454-58.052-5.02-59.485-12.191s53.752-6.454,62.352-8.605S2231.186,505.9,2221.869,471.478Z" transform="translate(-1241.678 -110.832)" fill="#dfebfd"/>
    <path id="Path_329" data-name="Path 329" d="M2156.219,1138.193c-4.991-18.441-36.092-12.678-36.092-12.678s-21.117,32.272-27.261,33.04,12.671-31.12,12.671-31.12c-11.9-1.152-42.235,13.447-42.235,13.447s1.92,37.65-4.223,36.882,0-33.424,0-33.424c-11.519,3.458-22.269,16.9-22.269,16.9-13.439,21.9,15.358,38.034,15.358,38.034s.384,13.063-7.679,28.046h0a44.435,44.435,0,0,0-3.669,7.469h3.14q.385-1.264.852-2.439a.018.018,0,0,1,.006-.014c0-.011.009-.022.014-.034.215-.485.524-1.176.909-2.018v0s0,0,0,0c.959-1.879,1.608-3.267,2.017-4.27a.034.034,0,0,0,0-.01c2.875-5.9,7.016-13.585,9.778-15.2a6.082,6.082,0,0,1-.672-1.441l.672,1.441c5.376,11.526,32.252,13.446,47.227,10.373s8.447-7.3.384-14.159-24.957-5.051-29.948-7.74,2.3-5.379,12.287-4.61,14.974,10.758,31.1,12.294S2147,1178.149,2147,1178.149c-11.135,3.458-31.1-2.689-31.868-6.531s28.8-3.458,33.4-4.61S2161.21,1156.634,2156.219,1138.193Z" transform="translate(-1269.296 -568.526)" fill="#abc8f7"/>
    <path id="Path_330" data-name="Path 330" d="M1679.74,344.8c-16.135-18.367-48.613,5.815-48.613,5.815s-6.059,49-12.683,53.35-2.995-42.9-2.995-42.9c-14.323,5.4-40.936,39.3-40.936,39.3s23.44,42.169,15.949,44.755-18.851-38.4-18.851-38.4c-11.283,10.477-16.05,31.994-16.05,31.994-3.088,32.746,39.094,35.022,39.094,35.022s7.808,14.79,7,36.555h0a56.941,56.941,0,0,0,0,10.652l3.608-1.773c-.181-1.113-.315-2.208-.4-3.283a.023.023,0,0,1,0-.02c0-.015,0-.031,0-.047-.027-.679-.061-1.647-.093-2.832v0s0,0,0-.006c.042-2.7,0-4.661-.09-6.044a.047.047,0,0,0,0-.013c-.024-8.4.4-19.569,2.662-22.98a7.775,7.775,0,0,1-1.585-1.276l1.585,1.276c12.675,10.205,44.635-2.764,60.1-14.751s5.587-13.156-7.544-16.482-31.519,8.29-38.77,8.019-.387-7.48,11.515-12.234,23.27,3.9,42.662-3.438,16.39-49.146,16.39-49.146c-10.841,10.26-37.245,14.472-40.294,10.492s31.132-20.233,35.775-24.158S1695.874,363.163,1679.74,344.8Z" transform="translate(-946.842 -37.762)" fill="#dfebfd"/>
    <rect id="Rectangle_112" data-name="Rectangle 112" width="951.049" height="2.711" rx="1.355" transform="translate(152.3 724.618)" fill="#2e3552"/>
    <g id="Group_1446" data-name="Group 1446" transform="translate(248.303 337.808)">
      <path id="Path_331" data-name="Path 331" d="M653.025,581.476,585.61,654.388l-97.144-89.931v0l-40.932-37.891,67.414-72.909,76.427,70.75Z" transform="translate(-447.534 -453.654)" fill="#dceaff"/>
      <g id="Group_1445" data-name="Group 1445" transform="translate(13.615 13.776)">
        <path id="Path_332" data-name="Path 332" d="M665.848,610.882l-52.338,56.6L489.4,552.6l52.337-56.6Zm-47.64,48.064,39.47-42.688a7.151,7.151,0,0,0-.392-10.1l-110.078-101.9a7.269,7.269,0,0,0-10.276.4L497.62,547.171a7.219,7.219,0,0,0,.4,10.2L608.164,659.337A7.1,7.1,0,0,0,618.208,658.946Z" transform="translate(-489.404 -495.992)" fill="#c0d8fb"/>
      </g>
      <path id="Path_433" data-name="Path 433" d="M20.707.026A20.72,20.72,0,1,1,.027,20.72,20.778,20.778,0,0,1,20.707.026Z" transform="translate(80.331 79.578) rotate(-2.171)" fill="#c0d8fb"/>
    </g>
    <g id="Group_1448" data-name="Group 1448" transform="translate(378.212 281.934)">
      <path id="Path_333" data-name="Path 333" d="M983.339,466.017l-97.088,20.711L858.66,357.214v0l-11.626-54.57,97.086-20.708,21.709,101.891Z" transform="translate(-847.034 -281.934)" fill="#dceaff"/>
      <g id="Group_1447" data-name="Group 1447" transform="translate(12.583 10.416)">
        <path id="Path_334" data-name="Path 334" d="M996.355,479.4l-75.374,16.078-35.25-165.459,75.374-16.077Zm-66.616,11.807,56.843-12.125a7.147,7.147,0,0,0,5.5-8.481L960.814,323.849a7.272,7.272,0,0,0-8.628-5.6L895.57,330.326a7.216,7.216,0,0,0-5.549,8.561l31.286,146.851A7.107,7.107,0,0,0,929.739,491.211Z" transform="translate(-885.731 -313.945)" fill="#c0d8fb"/>
      </g>
      <path id="Path_428" data-name="Path 428" d="M21.112.364A20.741,20.741,0,1,1,.364,21.112,20.726,20.726,0,0,1,21.112.364Z" transform="translate(38.047 101.184) rotate(-45)" fill="#c0d8fb"/>
    </g>
    <path id="Rectangle_113" data-name="Rectangle 113" d="M38.718,0H415.324a58.415,58.415,0,0,1,58.415,58.415v237a15.475,15.475,0,0,1-15.475,15.475H15.475A15.475,15.475,0,0,1,0,295.412V38.718A38.718,38.718,0,0,1,38.718,0Z" transform="translate(354.513 414.026)" fill="#2b478b"/>
    <rect id="Rectangle_114" data-name="Rectangle 114" width="450.264" height="293.031" rx="21.614" transform="translate(365.137 424.819)" fill="#ff725e"/>
    <rect id="Rectangle_115" data-name="Rectangle 115" width="84.984" height="7.132" transform="translate(375.694 434.609)" fill="#2b478b"/>
    <rect id="Rectangle_116" data-name="Rectangle 116" width="70.671" height="3.566" transform="translate(375.694 452.689)" fill="#fff"/>
    <rect id="Rectangle_117" data-name="Rectangle 117" width="37.363" height="3.566" transform="translate(375.694 462.348)" fill="#fff"/>
    <rect id="Rectangle_118" data-name="Rectangle 118" width="47.476" height="3.566" transform="translate(375.694 472.007)" fill="#fff"/>
    <rect id="Rectangle_119" data-name="Rectangle 119" width="12.894" height="3.566" transform="translate(429.285 472.007)" fill="#fff"/>
    <rect id="Rectangle_120" data-name="Rectangle 120" width="24.363" height="3.566" transform="translate(446.576 472.007)" fill="#fff"/>
    <rect id="Rectangle_121" data-name="Rectangle 121" width="37.363" height="3.566" transform="translate(415.66 462.348)" fill="#fff"/>
    <g id="Group_1451" data-name="Group 1451" transform="translate(373.828 420.121)">
      <g id="Group_1450" data-name="Group 1450" clip-path="url(#clip-path)">
        <g id="Group_1449" data-name="Group 1449" transform="translate(243.258 26.941)">
          <path id="Path_335" data-name="Path 335" d="M1603.45,1161.537s-4.168-5.061-6.41-5.772-6.579-4.07-7.145-2.685,2.915,3.519,2.732,5.1-11.068,4.122-11,5.8,2.561,5.722,6.713,5.257,14.68-2.964,16.842-1.885S1603.45,1161.537,1603.45,1161.537Z" transform="translate(-1581.626 -1034.535)" fill="#ffb27d"/>
          <path id="Path_336" data-name="Path 336" d="M1757.11,1036.243a89.066,89.066,0,0,1-20.734,19.929,114.5,114.5,0,0,1-48.99,18.795c-6.109-1.956-24.874-4-35.963-5.788h0c-4.834-.777-8.206-1.509-8.434-2.158l.279-9.665s40.7-2.153,47.44-5.281c10.628-9.162,20.017-21.057,26.135-30.351,5.167-7.85,10.952-13.647,20.488-17.049C1751.115,999.756,1776.19,1010.6,1757.11,1036.243Z" transform="translate(-1623.032 -933.862)" fill="#fff"/>
          <path id="Path_337" data-name="Path 337" d="M1755.963,1132.841l-2.074,6.081a114.5,114.5,0,0,1-48.989,18.795c-4.907,0-24.874-4-35.963-5.788.439.036,30.192,2.364,36.767,1.682,6.625-.686,37.466-27.431,37.466-27.431Z" transform="translate(-1640.545 -1016.612)" fill="#dfebfd"/>
          <path id="Path_338" data-name="Path 338" d="M1854.852,2036.717h44.979c3.222-2.187-.869-23.567-.869-23.567s-12.276-4.66-14.4,4.818-15.636,12.482-22.786,13.638C1856.887,2032.4,1855.341,2035.092,1854.852,2036.717Z" transform="translate(-1766.005 -1614.211)" fill="#233862"/>
          <path id="Path_339" data-name="Path 339" d="M2060,2036.717h44.979c3.223-2.187-.869-23.567-.869-23.567s-12.276-4.66-14.4,4.818-15.636,12.482-22.785,13.638C2062.03,2032.4,2060.484,2035.092,2060,2036.717Z" transform="translate(-1904.44 -1614.211)" fill="#233862"/>
          <path id="Path_340" data-name="Path 340" d="M1892.067,1410.378s2.022,25.239,4.4,55.578c3.229,41.212,11.94,143.392,11.94,143.392s5.711,4.875,18.36,2.208a400.2,400.2,0,0,0,13.987-75.483c.05-.66.1-1.324.15-1.989,3-40.957,7.652-127.2,7.652-127.2Z" transform="translate(-1791.118 -1205.98)" fill="#2b478b"/>
          <path id="Path_341" data-name="Path 341" d="M1889.945,1390.824s2.712,33.96,5.088,64.3l44.287,70.117c.05-.659.1-1.324.149-1.989,3-40.957,7.653-127.2,7.653-127.2Z" transform="translate(-1789.686 -1195.147)" fill="#233862"/>
          <path id="Path_342" data-name="Path 342" d="M1929.641,1358.774s32.12,80,42.388,110.327c7.314,21.6,27.941,97.38,27.941,97.38s8.97,2.732,16.509-2.548c0,0,7.674-77.421-7.827-99.251-8.224-11.581-2.044-120.4-35.39-121.327S1929.641,1358.774,1929.641,1358.774Z" transform="translate(-1816.474 -1163.097)" fill="#2b478b"/>
          <path id="Path_343" data-name="Path 343" d="M1970.063,963.192a20.038,20.038,0,0,0,13.838,1.864,28.687,28.687,0,0,0,9.375-3.959,27.672,27.672,0,0,0,3.782-2.85s-.166-.24-.445-.711c-1.448-2.48-5.841-11.393-3.887-25.715.026-.188-1.392.078-3.533.585-6.374,1.51-19.186,5.146-19.753,5.308h-.022s-.157,3.012-.685,8.412c-.044.476-.091.973-.144,1.488-.066.633-.131,1.305-.209,1.995C1967.786,955.221,1970.063,963.192,1970.063,963.192Z" transform="translate(-1842.549 -885.451)" fill="#ffb27d"/>
          <path id="Path_344" data-name="Path 344" d="M1969.67,947.462c9.515,2.183,23.715-11.873,23.715-11.873a15.006,15.006,0,0,0-3.254-1.846c-6.374,1.51-19.186,5.146-19.753,5.308h-.022S1970.2,942.063,1969.67,947.462Z" transform="translate(-1843.486 -886.789)" fill="#ed975d"/>
          <path id="Path_345" data-name="Path 345" d="M1954.257,866.67a48.375,48.375,0,0,0,8.9,2.076c7.294.986,16.886.4,19.9-8.426,5.075-14.864,11.558-23.775-3.377-29.845-8-3.249-13.11-3.422-16.584-2.182a12.015,12.015,0,0,0-6.145,5.323C1954.05,838.166,1948.216,864.068,1954.257,866.67Z" transform="translate(-1831.306 -815.169)" fill="#ffb27d"/>
          <path id="Path_346" data-name="Path 346" d="M1931.86,809.056c8.648,6.219,20.611.1,24.329,1.76s4.382,7.885,4.448,9.864.327,3.654,5.372,2.468a2.452,2.452,0,0,1,1.832.11c2.092,1.242-.581,7.263-1.388,8.566,0,0-1.161,4.313,1.415,6.413.312.251,5.371,2.464,17.565-16.208a17.349,17.349,0,0,0,.786-15.89c-2.956-6.357-15.314-12.5-25.792-15.758-3.927-1.221-6.839-1.176-9.116-.34-3.8,1.389-5.825,4.982-7.835,8.591C1940.1,804.694,1931.86,809.056,1931.86,809.056Z" transform="translate(-1817.971 -789.435)" fill="#2b478b"/>
          <path id="Path_347" data-name="Path 347" d="M1949.562,1126.371s-4.186.905-9.477,1.8a103.724,103.724,0,0,1-15.827,1.692,142.662,142.662,0,0,1-41.427-6.821c-4.24,0-6.177-6.569-6.872-15.736a180.743,180.743,0,0,1-.032-20.971c.11-2.387.247-4.773.393-7.109.3-4.636.645-9.084.96-13.021.3-3.694.567-6.931.727-9.441,0,0-.6-17.565-.366-33.018.17-11.091,6.387-21.186,7.946-22.832,4.514-4.777,17.6-7.8,20.213-8.215.2-.028.306-.046.306-.046,10.756,6.044,25.239-2.121,25.239-2.121.329.055.649.132.969.2,1.064-.229,11.934,1.385,14.465,2.766,6.255,3.411,9.887,41.256,9.887,41.256,1.042,25.707-.269,66.876,1.764,82.589C1959.1,1122.521,1954.094,1125.324,1949.562,1126.371Z" transform="translate(-1780.033 -925.101)" fill="#fff"/>
          <path id="Path_348" data-name="Path 348" d="M1992.228,991.2s-16.026,16.539-27.484,13.151c0,0-1.527-2.234,3.634-2.95S1979.108,1000.979,1992.228,991.2Z" transform="translate(-1840.02 -925.551)" fill="#dfebfd"/>
          <path id="Path_349" data-name="Path 349" d="M1959.372,918.223s-.313,1.924,4.158,3.46c0,0,3.754,1.29,4.439-.684A12.74,12.74,0,0,0,1959.372,918.223Z" transform="translate(-1836.534 -876.318)" fill="#fff"/>
          <path id="Path_350" data-name="Path 350" d="M1941.027,1183.508s-23.275,38.952-36.479,45.81c-8.928,4.636-21.428,7.077-28.588,8.174a180.741,180.741,0,0,1-.032-20.971c9.458-1.148,23.864-2.977,23.864-2.977Z" transform="translate(-1780.033 -1055.287)" fill="#dfebfd"/>
          <path id="Path_351" data-name="Path 351" d="M1911.782,1123.359l-12.406,44.807s-14.6.924-21.644.668c.3-4.635.306-4.79.622-8.727C1878.354,1160.107,1895.113,1151.365,1911.782,1123.359Z" transform="translate(-1781.445 -1014.708)" fill="#dfebfd"/>
          <path id="Path_352" data-name="Path 352" d="M1707.427,1253.042s-4.168-5.061-6.41-5.772-6.58-4.07-7.145-2.685,2.915,3.519,2.732,5.1-11.068,4.123-11,5.8,2.561,5.721,6.712,5.257,14.68-2.964,16.842-1.885S1707.427,1253.042,1707.427,1253.042Z" transform="translate(-1651.792 -1096.267)" fill="#ffb27d"/>
          <path id="Path_353" data-name="Path 353" d="M1995.442,1021.933s.734,23.732-53.326,71.347l-10.857-19.457c-2-1.165,34.924-80.627,45.535-79.993C1997.355,995.059,1995.442,1021.933,1995.442,1021.933Z" transform="translate(-1817.513 -927.322)" fill="#fff"/>
          <path id="Path_354" data-name="Path 354" d="M1806.842,1232.556s-61.478,7.034-63.754,8.255-7.16,5.981-5.532,11.951c0,0,31.824,4,49.334,3.929,15.105-.064,24.874-2.488,24.874-2.488Z" transform="translate(-1686.631 -1088.376)" fill="#fff"/>
        </g>
      </g>
    </g>
    <g id="Group_1456" data-name="Group 1456" transform="translate(505.827 362.01)">
      <path id="Path_355" data-name="Path 355" d="M1416.05,615.844a88.023,88.023,0,0,1-20.024,56.562,73.956,73.956,0,0,0-16.988,46.877v24.7a28.583,28.583,0,0,1-28.486,28.5h-45.58a28.574,28.574,0,0,1-28.482-28.5V719.325a73.664,73.664,0,0,0-16.9-46.813,88.38,88.38,0,0,1,48.936-142.365q1.684-.378,3.394-.683c.607-.111,1.213-.214,1.823-.312a88.319,88.319,0,0,1,102.308,86.692Z" transform="translate(-1239.479 -528.037)" fill="#ffeddc"/>
      <path id="Path_356" data-name="Path 356" d="M1478.158,1279.3l-.1.759-1.251,9.606-.33,2.531v.021l-.334,2.547-1.247,9.6-.33,2.53,0,.022-.33,2.552-.184,1.407c-.634,4.871-6.2,8.594-12.857,8.594h-15a17.1,17.1,0,0,1-4.513-.6h0a14.553,14.553,0,0,1-3.493-1.454l-.081-.047a11.568,11.568,0,0,1-2.271-1.733,8.228,8.228,0,0,1-2.486-4.674l-.531-3.722-.339-2.346v0l0-.051v0l-.33-2.295-1.273-8.9-.334-2.337-.008-.052-.33-2.307-1.38-9.644Z" transform="translate(-1367.244 -1034.857)" fill="#2b478b"/>
      <g id="Group_1452" data-name="Group 1452" transform="translate(62.947 244.442)">
        <path id="Path_357" data-name="Path 357" d="M1475.069,1279.3h-8.477c-13.68,3.958-27.249,7.869-33.537,9.644l.33,2.307.008.052.334,2.337c5.092-1.411,17.315-4.914,47.2-13.582l.1-.759Z" transform="translate(-1433.055 -1279.299)" fill="#233862"/>
        <path id="Path_358" data-name="Path 358" d="M1439.369,1326.327v0l0,.051v0l.339,2.346c5.889-1.655,18.034-5.142,43.334-12.479l.334-2.547v-.021l.33-2.531c-15.986,4.632-35.336,10.224-44.671,12.878Z" transform="translate(-1437.093 -1300.789)" fill="#233862"/>
        <path id="Path_359" data-name="Path 359" d="M1452.658,1369.342l.081.047a14.536,14.536,0,0,0,3.493,1.454h0c6.939-1.99,17.238-4.966,32.555-9.4l.33-2.552,0-.022.33-2.53c-13.68,3.963-29.375,8.5-39.07,11.274A11.582,11.582,0,0,0,1452.658,1369.342Z" transform="translate(-1444.751 -1331.269)" fill="#233862"/>
      </g>
      <g id="Group_1453" data-name="Group 1453" transform="translate(50.691 131.089)">
        <path id="Path_431" data-name="Path 431" d="M.668.026H4.661L4.65,114.653H.657Z" transform="translate(0 0.753) rotate(-9.615)" fill="#f99746"/>
      </g>
      <g id="Group_1454" data-name="Group 1454" transform="translate(99.676 132.845)">
        <path id="Path_432" data-name="Path 432" d="M.028.709,113.111.7V4.689L.028,4.7Z" transform="translate(0 111.139) rotate(-79.632)" fill="#f99746"/>
      </g>
      <g id="Group_1455" data-name="Group 1455" transform="translate(53.291 129.207)">
        <path id="Path_360" data-name="Path 360" d="M1448.893,947.855a7.8,7.8,0,0,1-1.724-.211,2.477,2.477,0,0,1-1.957-2.142c-.455-2.5,1.5-7.077,4.251-10.958-1.437-2.51-3.351-4.581-5.357-5.188-2.965-.9-7.513,1.839-10.681,5.337a23.7,23.7,0,0,1,1.558,2.54c1.623,3.066,2.789,6.988,1.193,8.8-.591.672-1.8,1.282-4.194.377-2.992-1.129-4.067-3.665-2.95-6.957a16.01,16.01,0,0,1,2.836-4.849c-2.453-3.2-5.732-5.635-8.962-5.228a9.894,9.894,0,0,0-4.437,1.675c2.066,3.847,2.542,8.73,1.108,11.349-.976,1.785-2.682,2.349-4.8,1.595-1.523-.543-2.32-2.641-2.026-5.346a12.353,12.353,0,0,1,4.144-7.908,10.265,10.265,0,0,0-2.3-2.577,7.6,7.6,0,0,0-10.362.517l-.869-.842c.056-.057,5.564-5.609,11.972-.63a11.362,11.362,0,0,1,2.516,2.8,11.1,11.1,0,0,1,4.905-1.83c3.622-.455,7.236,2.1,9.918,5.5,3.448-3.748,8.357-6.517,11.783-5.482,2.165.655,4.206,2.745,5.766,5.319a20.735,20.735,0,0,1,4.646-4.573c2.522-1.671,4.166-1.288,5.1-.673a9.123,9.123,0,0,1,2.45,2.451,13.575,13.575,0,0,1,2.345-1.511c2.922-1.457,5.6-1.349,7.556.3l-.781.923c-2.1-1.781-4.811-.852-6.236-.142a12.582,12.582,0,0,0-2.247,1.455c1.945,3.51,2.323,8.085,1.208,10.3a2.556,2.556,0,0,1-3.419,1.342,4.543,4.543,0,0,1-3.36-4.144c-.144-2.593,1.652-5.546,4-7.721a7.92,7.92,0,0,0-2.178-2.242c-1.141-.751-2.679-.05-3.767.671a20.4,20.4,0,0,0-4.673,4.7c1.813,3.451,2.752,7.472,2.065,10.066A3.91,3.91,0,0,1,1448.893,947.855Zm1.2-12.126c-2.392,3.491-4.076,7.439-3.69,9.556a1.3,1.3,0,0,0,1.035,1.18c2.368.537,3.823-.154,4.324-2.056C1452.341,942.212,1451.58,938.78,1450.09,935.729Zm-17.475-.088a14.353,14.353,0,0,0-2.439,4.2c-.917,2.7-.166,4.532,2.232,5.437.966.364,2.246.652,2.861-.045.949-1.078.392-4.135-1.355-7.435A23.1,23.1,0,0,0,1432.616,935.642Zm-15.11-3.831a11.131,11.131,0,0,0-3.56,6.97c-.224,2.063.282,3.74,1.231,4.077,1.535.546,2.663.2,3.339-1.036C1419.744,939.575,1419.3,935.259,1417.506,931.81Zm44.6.772c-2.1,2.018-3.526,4.6-3.416,6.6a3.408,3.408,0,0,0,2.568,3.075,1.365,1.365,0,0,0,1.924-.75C1464.114,939.649,1463.716,935.675,1462.1,932.582Z" transform="translate(-1403.361 -925.138)" fill="#f99746"/>
      </g>
      <path id="Path_361" data-name="Path 361" d="M1591.9,614c7.258,6.842,6.347,19.431-2.989,22.232-7.039,2.112-17.535-.708-22.722-9.7s-2.795-16.378,3.569-20.054S1584.354,606.879,1591.9,614Z" transform="translate(-1458.045 -580.025)" fill="#fff"/>
    </g>
    <path id="Rectangle_125" data-name="Rectangle 125" d="M6.988,0H546.044a6.988,6.988,0,0,1,6.988,6.988v0a6.988,6.988,0,0,1-6.988,6.988H6.988A6.988,6.988,0,0,1,0,6.988v0A6.988,6.988,0,0,1,6.988,0Z" transform="translate(311.911 710.862)" fill="#375daa"/>
    <g id="Group_1457" data-name="Group 1457" transform="translate(376.622 629.587)">
      <rect id="Rectangle_126" data-name="Rectangle 126" width="98.507" height="81.275" transform="translate(120.655 81.275) rotate(180)" fill="#efc8ab"/>
      <rect id="Rectangle_127" data-name="Rectangle 127" width="98.507" height="81.275" transform="translate(169.909 81.275) rotate(180)" fill="#ffeddc"/>
      <path id="Path_362" data-name="Path 362" d="M1061.717,1350.4h98.761v25.841l-98.761,55.434Z" transform="translate(-990.316 -1350.401)" fill="#f7dcc6"/>
      <path id="Path_363" data-name="Path 363" d="M1061.717,1350.4l19.492,21.384h97.2l-18.189-21.384Z" transform="translate(-990.316 -1350.401)" fill="#ffeddc"/>
      <path id="Path_364" data-name="Path 364" d="M959.623,1359.59l-20.764,20.777H910.427V1350.4h49.2Z" transform="translate(-888.222 -1350.401)" fill="#e8b795"/>
      <path id="Path_365" data-name="Path 365" d="M864.289,1350.4l-22.147,21.384h49.285l22.116-21.384Z" transform="translate(-842.142 -1350.401)" fill="#ffeddc"/>
    </g>
    <g id="Group_1462" data-name="Group 1462" transform="translate(869.912 525.232)">
      <g id="Group_1460" data-name="Group 1460" transform="translate(0 108.597)">
        <path id="Path_434" data-name="Path 434" d="M42.54.185A43.011,43.011,0,0,1,85.27,42.94,42.1,42.1,0,0,1,42.921,85.326,43.011,43.011,0,0,1,.191,42.571,42.1,42.1,0,0,1,42.54.185Z" transform="translate(0 10.694) rotate(-7.47)" fill="#e2810e"/>
        <path id="Path_366" data-name="Path 366" d="M2405.619,1462.9q.79.482,1.605.933c.185.1.368.2.553.3q.632.337,1.267.651a42.755,42.755,0,0,0,39.439-75.844q-.821-.453-1.655-.866c-.538-.269-1.083-.525-1.629-.768a42.654,42.654,0,0,0-12.827-3.45,42.768,42.768,0,0,0-26.755,79.045Z" transform="translate(-2376.664 -1377.052)" fill="#ffb93e"/>
        <g id="Group_1458" data-name="Group 1458" transform="translate(12.664 11.468)">
          <path id="Path_367" data-name="Path 367" d="M2436.291,1475.3a38.311,38.311,0,1,1,33.6-19.81h0A38.32,38.32,0,0,1,2436.291,1475.3Zm.127-75.58a37.272,37.272,0,1,0,32.565,55.27l.452.25-.452-.25a37.263,37.263,0,0,0-32.565-55.27Z" transform="translate(-2398.072 -1398.686)" fill="#ffa412"/>
        </g>
        <g id="Group_1459" data-name="Group 1459" transform="translate(31.176 21.658)">
          <path id="Path_368" data-name="Path 368" d="M2455,1466.612a10.719,10.719,0,0,0,1.049,4.372c.049.1.1.205.153.307a13.2,13.2,0,0,0,2.7,3.524,19.458,19.458,0,0,0,4.47,3.122l-2.26,5.57,4.789,1.946,2.248-5.543a21.7,21.7,0,0,0,5.279.872,13.791,13.791,0,0,0,5.125-.739,12.358,12.358,0,0,0,4.51-2.815,15.047,15.047,0,0,0,3.424-5.326l-8.7-3.536a9.246,9.246,0,0,1-1.9,3.09,5.992,5.992,0,0,1-2.353,1.523,5.837,5.837,0,0,1-2.578.258,10.055,10.055,0,0,1-2.555-.664,8.334,8.334,0,0,1-2.338-1.373,5.561,5.561,0,0,1-1.383-1.737,4.405,4.405,0,0,1-.465-1.967,5.374,5.374,0,0,1,.416-2.065,6.42,6.42,0,0,1,1.172-1.937,4.708,4.708,0,0,1,1.743-1.184,8.861,8.861,0,0,1,2.488-.553,23.109,23.109,0,0,1,3.4-.023,61.277,61.277,0,0,0,6.242.007,19.31,19.31,0,0,0,5.187-.941,11.393,11.393,0,0,0,4.075-2.388,12.877,12.877,0,0,0,3.787-9.027,10.843,10.843,0,0,0-1.025-4.4,13.534,13.534,0,0,0-2.788-3.889,18.087,18.087,0,0,0-4.424-3.15l2.43-5.991-4.819-1.958-2.465,6.075a16.114,16.114,0,0,0-5.254-.537,12.208,12.208,0,0,0-8.534,4.213,16.284,16.284,0,0,0-2.85,4.729l8.706,3.536a7.924,7.924,0,0,1,3.529-4.42,5.5,5.5,0,0,1,4.668-.044,6.962,6.962,0,0,1,2.179,1.328,4.722,4.722,0,0,1,1.192,1.69,4.414,4.414,0,0,1,.3,1.933,6.509,6.509,0,0,1-.482,2.055,5.97,5.97,0,0,1-1.062,1.752,4.387,4.387,0,0,1-1.671,1.133,8.9,8.9,0,0,1-2.5.548,29.887,29.887,0,0,1-3.556.072q-3.364-.094-6.226.081a19.534,19.534,0,0,0-5.184.975,11.578,11.578,0,0,0-4.08,2.4,11.216,11.216,0,0,0-2.592,3.705c-.091.2-.181.4-.265.614A11.769,11.769,0,0,0,2455,1466.612Z" transform="translate(-2455 -1430.002)" fill="#ffa412"/>
        </g>
      </g>
      <g id="Group_1461" data-name="Group 1461" transform="translate(54.589 0)">
        <path id="Path_369" data-name="Path 369" d="M2591.5,1052.116c-.13-.524,11.382,5.206,11.966,5.854,5.4,5.993,3.86,13.813.77,13.888-1.981.048-1.6,3.344-1.6,3.344l-22.074-9.343S2583.227,1050.351,2591.5,1052.116Z" transform="translate(-2563.15 -1044.721)" fill="#2c3a64"/>
        <path id="Path_370" data-name="Path 370" d="M2605.805,1038.284s-.789-8.6,8.819-8.6a11.278,11.278,0,0,0-4.417,2.371s6.128-3.6,12.8,1.931,2.525,19.4,4.553,22.037,9.925,3.161,8.959,11.677-25.063,19.184-23.516,26.229c0,0-9.444-13.891-2.691-20.23,0,0-3.292,3.1-3.627,6.789,0,0-.893-7.2,3.685-9.5,4.052-2.038,7.371-9.49,7.02-10.823S2605.805,1038.284,2605.805,1038.284Z" transform="translate(-2580.169 -1029.68)" fill="#2c3a64"/>
        <path id="Path_371" data-name="Path 371" d="M2582.672,1166.313c1.482-7.139,10.732-9.352,15.109-3.523a7.735,7.735,0,0,1,1.521,3.75c1,8.1-11.948,41.108-13.8,44.1-3.376,5.441-23.254,24.091-23.254,24.091l-3.664-2.222s14.1-23.884,16.283-26.12C2577.388,1203.8,2579.859,1179.867,2582.672,1166.313Z" transform="translate(-2548.312 -1117.229)" fill="#ed985f"/>
        <path id="Path_372" data-name="Path 372" d="M2542.328,1377.163s-5.347-3.513-7.371-3.287-7.883,1.913-7.954,2.775,6.528,1.4,6.97,1.871,4.924,3.464,6.549,2.525S2542.328,1377.163,2542.328,1377.163Z" transform="translate(-2527.002 -1261.876)" fill="#ed985f"/>
        <path id="Path_373" data-name="Path 373" d="M2688.83,1377.818l4.777-.7a56.516,56.516,0,0,0,18.453-36.6,42.582,42.582,0,0,0,.114-7.368,1.292,1.292,0,0,1,.167-.813s0,0,.006-.007c.514-.788,1.793-2.764,3.525-5.573,1.708-2.768,4.629-8,7.844-13.872,5.791-10.575,12.533-23.221,14.847-27.249,7.369-12.838,3.817-21.47,3.817-21.47s-20.557-2.034-26.191-6.964l-2.029,3.129s-4.454,19.73-4.243,19.821q-.33,1.006-.669,2.049c-3.515,10.856-7.558,24.424-9.762,35.475-1.239,6.218-1.9,11.635-1.542,15.326a26.926,26.926,0,0,1-.363,5.614C2695.59,1352.771,2688.83,1377.818,2688.83,1377.818Z" transform="translate(-2636.207 -1183.169)" fill="#2b478b"/>
        <path id="Path_374" data-name="Path 374" d="M2658.016,1623.492h19.929a10.955,10.955,0,0,0-.564-5.345c-1-2.212-2.419-2.282-.181-5.75-1.267,1.3-5.337,1.844-8.219,1.456-.353.573-2.276,4.415-3.455,5.263C2664.224,1620.052,2658.417,1619.718,2658.016,1623.492Z" transform="translate(-2615.413 -1422.795)" fill="#233862"/>
        <path id="Path_375" data-name="Path 375" d="M2751.621,1282.2c1.741,9.607,5.853,25.6,14.468,30.684,5.791-10.575,12.533-23.221,14.846-27.249,7.369-12.838,3.817-21.47,3.817-21.47s-20.557-2.034-26.19-6.964l-2.029,3.129s-4.454,19.73-4.243,19.821Q2751.96,1281.154,2751.621,1282.2Z" transform="translate(-2678.58 -1183.169)" fill="#233862"/>
        <path id="Path_376" data-name="Path 376" d="M2630.7,1166.922a21.351,21.351,0,0,0-4.1,6.444s4.495,12.916,15,14.535C2641.6,1187.9,2633.288,1166.917,2630.7,1166.922Z" transform="translate(-2594.213 -1122.267)" fill="#ed7d2b"/>
        <path id="Path_377" data-name="Path 377" d="M2794.464,1257.016l-.068-3.73c7.426.937,25.605-8.88,25.605-8.88s7.769,5.171,8.833,19.937c.519,7.207,3.8,37.687,4.166,46.788.133,3.3.176,5.653.192,6.593a.018.018,0,0,0,0,.01,1.3,1.3,0,0,0,.316.767,42.572,42.572,0,0,1,4.024,6.172c11.332,21.1,5.406,49.761,5.406,49.761l-2.631-.669s-9.582-29.717-15.844-42.57a26.858,26.858,0,0,0-2.836-4.858c-2.354-2.861-4.837-7.721-7.285-13.569-4.625-11.057-9.117-25.647-12.32-36.944C2801.794,1275.865,2794.464,1257.016,2794.464,1257.016Z" transform="translate(-2707.445 -1174.54)" fill="#2b478b"/>
        <path id="Path_378" data-name="Path 378" d="M2634.182,1147.3c12.14-2.788,4.384-19.858,3.681-19.557-1.682-.343-5.376-3.3-8.681-9.07l-.446.388-7.457,6.542s1.724,2.544,3.174,5.036c1.133,1.951,2.1,3.873,1.943,4.533C2625.8,1135.646,2630.944,1148.048,2634.182,1147.3Z" transform="translate(-2590.622 -1089.719)" fill="#ffb27d"/>
        <path id="Path_379" data-name="Path 379" d="M2621.28,1126.414s1.724,2.541,3.174,5.036c4.636-2.859,4.64-8.6,4.283-11.577Z" transform="translate(-2590.623 -1090.527)" fill="#ed985f"/>
        <path id="Path_380" data-name="Path 380" d="M2595.418,1102.04s11.256-6.267,7.248-13.221-5.255-12.446-12.612-8.739-7.21,7.16-6.437,9.806S2592.386,1103.491,2595.418,1102.04Z" transform="translate(-2564.967 -1062.876)" fill="#ffb27d"/>
        <path id="Path_381" data-name="Path 381" d="M2578.352,1083.877c.516-3.088,2.083-3.382,3.176-3.176a9,9,0,0,1,10.948-4.194,15.325,15.325,0,0,0,8.872,5.332s-1.306,2.432-6.688,3.937a9.2,9.2,0,0,1-5.309-.425,30.053,30.053,0,0,0,7.638,2.881c-7.092.65-13.84-5.839-14.54-6.533a10.111,10.111,0,0,0-.557,4.649c.467,2.091,2.322,5.879,1.189,6.369C2583.082,1092.718,2577.579,1088.507,2578.352,1083.877Z" transform="translate(-2561.604 -1060.922)" fill="#2c3a64"/>
        <path id="Path_382" data-name="Path 382" d="M2894.935,1623.193h19.929a10.953,10.953,0,0,0-.563-5.345c-1-2.212-2.56-3.218-2.185-5.895a7.176,7.176,0,0,1-6.212,2.378c-.353.573-2.279,3.637-3.458,4.485C2901.143,1619.753,2895.336,1619.419,2894.935,1623.193Z" transform="translate(-2775.291 -1422.496)" fill="#233862"/>
        <path id="Path_383" data-name="Path 383" d="M2642.959,1172.81a48.462,48.462,0,0,0,9.845,1.786c5.24.573,10.651.964,13.485,2.095a3.044,3.044,0,0,1,1.941,1.573c1.229,3.7,6.643,9.4,6.643,9.4,34.7-1.58,38.511-16.1,38.511-16.1-23.347-27.165-62.879-35.028-62.879-35.028s-2.823-1.2-9.934,4.457c-4.745,3.775-4.121,5.224-4.121,5.224S2635.414,1170.177,2642.959,1172.81Z" transform="translate(-2600.828 -1101.694)" fill="#f99746"/>
        <path id="Path_384" data-name="Path 384" d="M2686.844,1195.168c5.24.573,10.65.964,13.485,2.1a55.321,55.321,0,0,0-7.009-30.343S2687.992,1188.615,2686.844,1195.168Z" transform="translate(-2634.867 -1122.266)" fill="#ed7d2b"/>
        <path id="Path_385" data-name="Path 385" d="M2610.647,1156.622s13.134,1.3,14.186,9.837-12.591,43.319-14.545,46.468c-3.557,5.733-24.5,25.386-24.5,25.386l-3.861-2.341s14.858-25.169,17.159-27.525C2602.692,1204.75,2606.2,1159.58,2610.647,1156.622Z" transform="translate(-2564.063 -1115.318)" fill="#ffb27d"/>
        <path id="Path_386" data-name="Path 386" d="M2671.183,1167.354c-.035.194-12.121,3.95-19.9,0,0,0-1.665-17.957,7.622-16.983s14.785,3.9,15.019,8.349S2671.183,1167.354,2671.183,1167.354Z" transform="translate(-2610.792 -1111.076)" fill="#f99746"/>
        <path id="Path_387" data-name="Path 387" d="M2566.239,1390.809s-4.711-4.33-6.745-4.433-8.087.617-8.3,1.456,6.217,2.434,6.578,2.97,4.3,4.213,6.056,3.549S2566.239,1390.809,2566.239,1390.809Z" transform="translate(-2543.326 -1270.31)" fill="#ffb27d"/>
      </g>
    </g>
    <g id="Group_1467" data-name="Group 1467" transform="translate(682.4 343.813)">
      <path id="Path_388" data-name="Path 388" d="M1971.719,519.631H1782.482l1.336-47.521h189.237Z" transform="translate(-1782.482 -472.11)" fill="#fafdff"/>
      <g id="Group_1465" data-name="Group 1465" transform="translate(11.985 11.521)">
        <path id="Path_389" data-name="Path 389" d="M1985.37,512.067l-.16,5.684a4.718,4.718,0,0,1-4.672,4.547h-156.78a4.407,4.407,0,0,1-4.416-4.547l.16-5.684a4.717,4.717,0,0,1,4.672-4.547h156.78A4.408,4.408,0,0,1,1985.37,512.067Z" transform="translate(-1819.34 -507.52)" fill="#afcdfb" opacity="0.5"/>
        <g id="Group_1463" data-name="Group 1463" transform="translate(131.833 4.914)">
          <path id="Path_390" data-name="Path 390" d="M2227.163,523.612h-2.405l.021-.739h3.363l-.018.636-2.276,4.151h-.943Z" transform="translate(-2224.758 -522.791)" fill="#699dee"/>
          <path id="Path_391" data-name="Path 391" d="M2236.767,525.1a2.317,2.317,0,0,1,2.161-2.475,2.156,2.156,0,0,1,2.008,2.475,2.317,2.317,0,0,1-2.161,2.475A2.152,2.152,0,0,1,2236.767,525.1Zm3.3,0c.026-.944-.437-1.716-1.175-1.716s-1.231.752-1.257,1.716c-.027.944.429,1.716,1.174,1.716S2240.041,526.054,2240.068,525.1Z" transform="translate(-2232.861 -522.621)" fill="#699dee"/>
          <path id="Path_392" data-name="Path 392" d="M2251.909,523.929a1.2,1.2,0,0,1,1.169-1.224,1.109,1.109,0,0,1,1.086,1.224,1.2,1.2,0,0,1-1.168,1.224A1.11,1.11,0,0,1,2251.909,523.929Zm4.017-1.169h.677l-3.634,4.787h-.677Zm-2.37,1.169c.011-.383-.2-.7-.506-.7s-.521.315-.532.7.2.7.506.7S2253.544,524.312,2253.555,523.929Zm1.175,2.448a1.2,1.2,0,0,1,1.169-1.224,1.11,1.11,0,0,1,1.086,1.224,1.2,1.2,0,0,1-1.168,1.224A1.11,1.11,0,0,1,2254.73,526.377Zm1.647,0c.011-.383-.2-.7-.505-.7-.322,0-.522.315-.532.7s.2.7.506.7S2256.367,526.76,2256.377,526.377Z" transform="translate(-2243.08 -522.678)" fill="#699dee"/>
        </g>
        <g id="Group_1464" data-name="Group 1464" transform="translate(0)">
          <path id="Path_393" data-name="Path 393" d="M1930.186,507.52l-.416,14.778H1823.759a4.419,4.419,0,0,1-4.416-4.547l.16-5.684a4.717,4.717,0,0,1,4.672-4.547Z" transform="translate(-1819.34 -507.52)" fill="#f99746"/>
          <path id="Path_394" data-name="Path 394" d="M1843.217,507.52l-9.394,14.778h-9.786a4.4,4.4,0,0,1-4.284-3.338l7.271-11.44Z" transform="translate(-1819.619 -507.52)" fill="#ed7d2b"/>
          <path id="Path_395" data-name="Path 395" d="M1924.135,507.519,1914.74,522.3h-16.189l9.395-14.778Z" transform="translate(-1872.793 -507.519)" fill="#ed7d2b"/>
          <path id="Path_396" data-name="Path 396" d="M2009.455,507.519l-9.394,14.778h-16.193l9.395-14.778Z" transform="translate(-1930.367 -507.519)" fill="#ed7d2b"/>
          <path id="Path_397" data-name="Path 397" d="M2094.783,507.519l-9.395,14.778H2069.2l9.394-14.778Z" transform="translate(-1987.949 -507.519)" fill="#ed7d2b"/>
        </g>
      </g>
      <g id="Group_1466" data-name="Group 1466" transform="translate(13.771 33.099)">
        <path id="Path_398" data-name="Path 398" d="M1853.62,575.79h-28.315l.055-1.954h28.315Z" transform="translate(-1825.152 -573.836)" fill="#afcdfb"/>
        <path id="Path_399" data-name="Path 399" d="M1845.406,592.587h-20.573l.055-1.954h20.573Z" transform="translate(-1824.833 -585.168)" fill="#afcdfb"/>
        <path id="Path_400" data-name="Path 400" d="M1904.3,592.587H1892l.055-1.954h12.3Z" transform="translate(-1870.161 -585.168)" fill="#afcdfb"/>
        <path id="Path_401" data-name="Path 401" d="M1955.148,592.587h-18.786l.055-1.954H1955.2Z" transform="translate(-1900.095 -585.168)" fill="#afcdfb"/>
        <path id="Path_402" data-name="Path 402" d="M1927.5,575.79h-8.573l.055-1.954h8.573Z" transform="translate(-1888.329 -573.836)" fill="#afcdfb"/>
        <path id="Path_403" data-name="Path 403" d="M1985.489,575.79h-31.175l.055-1.954h31.175Z" transform="translate(-1912.21 -573.836)" fill="#afcdfb"/>
      </g>
    </g>
    <g id="Group_1473" data-name="Group 1473" transform="translate(204.777 450.428)">
      <g id="Group_1470" data-name="Group 1470" transform="translate(127.877 66.705)">
        <path id="Path_430" data-name="Path 430" d="M32.849.248A32.606,32.606,0,1,1,.256,32.859,32.587,32.587,0,0,1,32.849.248Z" transform="translate(0 14.48) rotate(-13.266)" fill="#e2810e"/>
        <path id="Path_404" data-name="Path 404" d="M796.982,1076.75a32.592,32.592,0,1,0-44.271,12.815A32.618,32.618,0,0,0,796.982,1076.75Z" transform="translate(-726.446 -1020.714)" fill="#ffb93e"/>
        <g id="Group_1468" data-name="Group 1468" transform="translate(12.599 11.401)">
          <path id="Path_405" data-name="Path 405" d="M774.839,1098.272a29.215,29.215,0,1,1,25.62-15.107A29,29,0,0,1,774.839,1098.272Zm.09-57.654a28.452,28.452,0,1,0,13.675,3.545A28.513,28.513,0,0,0,774.929,1040.618Z" transform="translate(-745.676 -1039.83)" fill="#ffa412"/>
        </g>
        <g id="Group_1469" data-name="Group 1469" transform="translate(26.734 19.19)">
          <path id="Path_406" data-name="Path 406" d="M810.567,1090.785a4.9,4.9,0,0,0-.894-1.477,3.581,3.581,0,0,0-1.329-.9,6.781,6.781,0,0,0-1.9-.423,17.845,17.845,0,0,0-2.589-.017,46.85,46.85,0,0,1-4.76.006,14.772,14.772,0,0,1-3.957-.718,8.693,8.693,0,0,1-3.107-1.821,9.821,9.821,0,0,1-2.888-6.885,8.26,8.26,0,0,1,.781-3.351,10.313,10.313,0,0,1,2.128-2.967,13.747,13.747,0,0,1,3.373-2.4l-1.854-4.569,3.675-1.493,1.88,4.633a12.317,12.317,0,0,1,4.008-.41,9.312,9.312,0,0,1,6.508,3.213,12.409,12.409,0,0,1,2.172,3.606l-6.638,2.7a6.038,6.038,0,0,0-2.692-3.37,4.192,4.192,0,0,0-3.559-.034,5.349,5.349,0,0,0-1.663,1.012,3.61,3.61,0,0,0-.909,1.289,3.37,3.37,0,0,0-.231,1.474,4.948,4.948,0,0,0,.369,1.566,4.534,4.534,0,0,0,.81,1.337,3.36,3.36,0,0,0,1.273.863,6.772,6.772,0,0,0,1.909.418,22.91,22.91,0,0,0,2.712.055q2.565-.073,4.747.061a14.944,14.944,0,0,1,3.954.744,8.4,8.4,0,0,1,5.29,5.125,8.974,8.974,0,0,1,.714,3.639,8.158,8.158,0,0,1-.8,3.335,9.955,9.955,0,0,1-2.172,2.922,14.83,14.83,0,0,1-3.409,2.38l1.724,4.249-3.652,1.484-1.716-4.227a16.614,16.614,0,0,1-4.024.665,10.536,10.536,0,0,1-3.908-.563,9.429,9.429,0,0,1-3.439-2.147,11.486,11.486,0,0,1-2.612-4.062l6.639-2.7a7.087,7.087,0,0,0,1.451,2.357,4.579,4.579,0,0,0,1.8,1.161,4.439,4.439,0,0,0,1.966.2,7.6,7.6,0,0,0,1.949-.506,6.354,6.354,0,0,0,1.782-1.047,4.247,4.247,0,0,0,1.055-1.324,3.377,3.377,0,0,0,.354-1.5A4.11,4.11,0,0,0,810.567,1090.785Z" transform="translate(-789.144 -1063.766)" fill="#ffa412"/>
        </g>
      </g>
      <g id="Group_1472" data-name="Group 1472" transform="translate(0)">
        <path id="Path_407" data-name="Path 407" d="M728.9,1064.923c1.364-.963,4.455-3.082,4.616-2.61a2.077,2.077,0,0,1-.42,1.517c1.87-.7,3.769-1.157,8.259-.295a3.367,3.367,0,0,1,2.209,1.455,1.486,1.486,0,0,1-.517,2.318c-2.292,1.425-1.627.571-4.812,2.647s-7.083,2.606-9.413,1.149l-3.126-.522-.388-5.145S727.095,1065.225,728.9,1064.923Z" transform="translate(-591.458 -976.845)" fill="#ffb27d"/>
        <path id="Path_408" data-name="Path 408" d="M484.444,903.715s7.37,8.748,16.755,5.089c0,0,2.019-4.886,2.047-8.488,0-.443.009-.873.016-1.281.05-4.056.187-6.331.187-6.331l-.01,0c-.427-.178-14.347-5.9-14.335-5.422C489.343,898.248,484.444,903.715,484.444,903.715Z" transform="translate(-428.915 -858.789)" fill="#ffb27d"/>
        <path id="Path_409" data-name="Path 409" d="M503.054,895.164c1.342,2.489,5.948,7.36,12.76,9.139.05-4.056.187-6.332.187-6.332l-.01,0C515.606,897.866,502.655,894.43,503.054,895.164Z" transform="translate(-441.467 -864.059)" fill="#ed975d"/>
        <path id="Path_410" data-name="Path 410" d="M510,849.184s-15.654,3.682-17.8-6.107-5.6-15.908,4.3-18.673,12.67.544,14.179,3.637S514.015,847.974,510,849.184Z" transform="translate(-432.549 -815.693)" fill="#ffb27d"/>
        <path id="Path_411" data-name="Path 411" d="M476.181,829.83c-.214.137-3.582,1.172-9.961-11.543a11.079,11.079,0,0,1,.651-10.13c2.334-3.815,10.611-6.815,17.487-8.121s8.527,2.566,10.147,6.457c1.7,4.085,6.609,7.448,6.609,7.448-5.93,3.314-13.072-1.426-15.546-.647s-3.348,4.681-3.534,5.932-.471,2.29-3.582,1.173-1.407,4.412-.909,5.469C477.543,825.869,477.966,828.686,476.181,829.83Z" transform="translate(-415.992 -799.778)" fill="#a9453d"/>
        <g id="Group_1471" data-name="Group 1471" transform="translate(0 120.258)">
          <path id="Path_412" data-name="Path 412" d="M333.541,1593.9h-9.479c-1.987,0-4.2-1.991-4.748-5.636s-4.637-5.635-5.522-8.619,3.645-7.184,3.645-7.184l.757-.973.788-1.015,7.508,1.767s.185,1.789.3,4.068c.08,1.645.124,3.548.031,5.215-.221,3.979,1.113,8.262,4.646,9.037S333.541,1593.9,333.541,1593.9Z" transform="translate(-313.679 -1439.963)" fill="#2c3a64"/>
          <path id="Path_413" data-name="Path 413" d="M521.971,1614.087H496.845a2.284,2.284,0,0,1-.533-.155c-1.678-.841-1.152-7.267-.951-9.252.039-.368.066-.583.066-.583s8.835-7.071,10.051-1.656c.039.169.083.335.13.5v0c1.534,5.066,8.39,7.367,12.35,8.008C520.985,1611.441,521.77,1613.2,521.971,1614.087Z" transform="translate(-436.121 -1460.155)" fill="#2c3a64"/>
          <path id="Path_414" data-name="Path 414" d="M484.313,1192.073s-1.342,16.751-2.919,36.887c-2.144,27.353-4.721,60.951-4.977,67.317-.441,11.052-2.21,28.732-2.21,28.732s-4.194,4.2-12.59,2.43c0,0-7.481-25.238-9.618-51.941-.033-.437-.066-.878-.1-1.319-1.988-27.184-5.079-84.426-5.079-84.426Z" transform="translate(-403.527 -1183.122)" fill="#2b478b"/>
          <path id="Path_415" data-name="Path 415" d="M484.313,1192.073s-1.342,16.751-2.919,36.887L452,1275.5c-.033-.437-.066-.878-.1-1.319-1.988-27.184-5.079-84.426-5.079-84.426Z" transform="translate(-403.527 -1183.122)" fill="#233862"/>
          <path id="Path_416" data-name="Path 416" d="M396.137,1180.316s-24.186,60.667-40.089,89.176-20.873,36.466-20.873,36.466-9.111-3.646-9.939-6.133c0,0,6.081-55.04,16.731-68.457,6.018-7.581,13.087-30.333,13.418-38.29s2.153-23.7,2.153-23.7Z" transform="translate(-321.479 -1169.376)" fill="#2b478b"/>
        </g>
        <path id="Path_417" data-name="Path 417" d="M356.795,1166.162l-.256,3.9a8.41,8.41,0,0,1-4.634,10.487s-3.084,1.245-3.21-1.158.27-1.5.019-4.882,1.078-6.58,3.315-7.657l1.835-2.119Z" transform="translate(-337.292 -1045.987)" fill="#ffb27d"/>
        <path id="Path_418" data-name="Path 418" d="M358.089,1017.95c2.677.86,3.106.665,3.106.665s13.03-23.736,14.349-25.909,27.664-26.617,27.664-26.617l-6.77-25.261s-29.964,38.824-33.2,44.4c-5.347,9.206-8.48,30.587-8.48,30.587A7.838,7.838,0,0,0,358.089,1017.95Z" transform="translate(-341.401 -894.934)" fill="#ed7d2b"/>
        <path id="Path_419" data-name="Path 419" d="M470.358,964.3c-.094,5.187-.4,11.019-.8,16.943q-.037.526-.074,1.053c-.26,3.669-.542,7.347-.865,10.933-.13,1.438-.268,2.86-.412,4.256l-.022.188c-.011.522-.075,1.089-.133,1.607-1.321,13.433-2.706,24.046-2.963,24.209a1.505,1.505,0,0,1-1.031.263c-3.521-.443-14.025.357-22.625-1.515-7.257-1.532-13.505-4.436-20.127-8.351-.879-.52-2.882-1.9-2.719-2.926.16-1.131.456-2.765.832-4.82a261.028,261.028,0,0,0,4.325-33.821q.223-4.02.649-7.928a120.336,120.336,0,0,1,3.507-18.934c2.948-10.624,7.282-18.759,12.718-21.942.71-.4,4.532,2.035,8.042,4.289a15.491,15.491,0,0,0,9.974,2.364l2.921,3.233c3.537,4.115,7.3,9.593,8.332,17.38q.116.862.2,1.836A114.373,114.373,0,0,1,470.358,964.3Z" transform="translate(-384.466 -883.223)" fill="#f99746"/>
        <path id="Path_420" data-name="Path 420" d="M527.836,1012.356c-.094,5.188-.4,11.02-.8,16.943q-.037.527-.075,1.054c-20.11-12.6-23.208-35.644-23.208-35.644,9.894.434,17.753,2.71,23.811,5.965A114.378,114.378,0,0,1,527.836,1012.356Z" transform="translate(-441.944 -931.283)" fill="#ed7d2b"/>
        <path id="Path_421" data-name="Path 421" d="M560.618,993.859c.207-2.984-1.337-3.481-1.337-3.481s-30.322-5.5-32.9-6.31-24.618-23.753-24.618-23.753-8.448-9.534-15.366-7.428c-6.011,1.829-8.361,6.521-9.161,10.991a13.168,13.168,0,0,0,6.11,13.515c10.347,6.35,31.063,18.863,35.942,20.294,10.859,3.185,40.033.255,40.033.255A9.422,9.422,0,0,0,560.618,993.859Z" transform="translate(-423.914 -902.864)" fill="#f99746"/>
      </g>
    </g>
    <g id="Group_1476" data-name="Group 1476" transform="translate(499.518 636.744)">
      <path id="Path_437" data-name="Path 437" d="M36.32.033A36.3,36.3,0,1,1,.032,36.3,36.387,36.387,0,0,1,36.32.033Z" transform="translate(3.416 72.841) rotate(-88.494)" fill="#e2810e"/>
      <path id="Path_435" data-name="Path 435" d="M36.311.042A36.288,36.288,0,1,1,.041,36.288,36.4,36.4,0,0,1,36.311.042Z" transform="translate(0 72.58) rotate(-88.093)" fill="#ffb93e"/>
      <g id="Group_1474" data-name="Group 1474" transform="translate(4.418 4.765)">
        <path id="Path_422" data-name="Path 422" d="M1266.768,1453.287a33.111,33.111,0,1,1,23.406-9.7A32.874,32.874,0,0,1,1266.768,1453.287Zm0-64.267a31.145,31.145,0,1,0,31.126,31.145A31.172,31.172,0,0,0,1266.768,1389.021Z" transform="translate(-1233.667 -1387.045)" fill="#ffa412"/>
      </g>
      <g id="Group_1475" data-name="Group 1475" transform="translate(23.022 13.426)">
        <path id="Path_423" data-name="Path 423" d="M1309.933,1447.735a5.469,5.469,0,0,0-.078-1.923,3.994,3.994,0,0,0-.813-1.6,7.535,7.535,0,0,0-1.625-1.435,19.966,19.966,0,0,0-2.518-1.411,52.158,52.158,0,0,1-4.651-2.557,16.484,16.484,0,0,1-3.477-2.832,9.7,9.7,0,0,1-2.054-3.451,10.955,10.955,0,0,1,.884-8.277,9.2,9.2,0,0,1,2.565-2.851,11.476,11.476,0,0,1,3.673-1.75,15.329,15.329,0,0,1,4.586-.529l.647-5.459,4.391.522-.656,5.535a13.722,13.722,0,0,1,4.133,1.759,10.387,10.387,0,0,1,4.626,6.642,13.826,13.826,0,0,1,.181,4.691l-7.931-.942a6.736,6.736,0,0,0-.816-4.74,4.675,4.675,0,0,0-3.457-1.95,5.942,5.942,0,0,0-2.168.092,4.024,4.024,0,0,0-1.581.769,3.758,3.758,0,0,0-1.019,1.315,5.519,5.519,0,0,0-.483,1.728,5.06,5.06,0,0,0,.071,1.741,3.749,3.749,0,0,0,.779,1.529,7.567,7.567,0,0,0,1.639,1.436,25.489,25.489,0,0,0,2.618,1.514q2.543,1.311,4.6,2.616a16.665,16.665,0,0,1,3.46,2.855,9.367,9.367,0,0,1,2.409,7.853,10.012,10.012,0,0,1-1.26,3.937,9.09,9.09,0,0,1-2.576,2.824,11.084,11.084,0,0,1-3.692,1.684,16.539,16.539,0,0,1-4.608.487l-.6,5.077-4.364-.518.6-5.051a18.555,18.555,0,0,1-4.287-1.518,11.758,11.758,0,0,1-3.512-2.655,10.526,10.526,0,0,1-2.2-3.948,12.815,12.815,0,0,1-.365-5.372l7.932.942a7.906,7.906,0,0,0,.149,3.083,5.106,5.106,0,0,0,1.129,2.1,4.949,4.949,0,0,0,1.814,1.25,8.481,8.481,0,0,0,2.175.555,7.077,7.077,0,0,0,2.3-.062,4.731,4.731,0,0,0,1.742-.725,3.762,3.762,0,0,0,1.153-1.273A4.593,4.593,0,0,0,1309.933,1447.735Z" transform="translate(-1290.878 -1413.662)" fill="#ffa412"/>
      </g>
    </g>
    <g id="Group_1478" data-name="Group 1478" transform="translate(454.522 591.096)">
      <path id="Path_436" data-name="Path 436" d="M13.453.016A13.445,13.445,0,1,1,.015,13.445,13.486,13.486,0,0,1,13.453.016Z" transform="translate(0 26.891) rotate(-88.093)" fill="#fff"/>
      <g id="Group_1477" data-name="Group 1477" transform="translate(8.116 4.21)">
        <path id="Path_424" data-name="Path 424" d="M1114.042,1257.915a2.1,2.1,0,0,0-.106-.73,1.529,1.529,0,0,0-.373-.576,2.892,2.892,0,0,0-.676-.483,7.575,7.575,0,0,0-1.016-.438,19.879,19.879,0,0,1-1.873-.79,6.326,6.326,0,0,1-1.437-.941,3.717,3.717,0,0,1-.919-1.234,4.2,4.2,0,0,1,.009-3.189,3.529,3.529,0,0,1,.864-1.188,4.4,4.4,0,0,1,1.33-.812,5.869,5.869,0,0,1,1.726-.383l.031-2.106,1.694.025-.031,2.136a5.258,5.258,0,0,1,1.644.506,3.979,3.979,0,0,1,2.026,2.348,5.3,5.3,0,0,1,.255,1.781l-3.06-.045a2.58,2.58,0,0,0-.5-1.774,1.79,1.79,0,0,0-1.395-.606,2.273,2.273,0,0,0-.822.121,1.541,1.541,0,0,0-.572.356,1.44,1.44,0,0,0-.336.541,2.126,2.126,0,0,0-.116.678,1.944,1.944,0,0,0,.1.661,1.43,1.43,0,0,0,.357.551,2.9,2.9,0,0,0,.681.483,9.865,9.865,0,0,0,1.058.473q1.021.4,1.857.814a6.382,6.382,0,0,1,1.432.951,3.591,3.591,0,0,1,1.229,2.9,3.83,3.83,0,0,1-.325,1.55,3.474,3.474,0,0,1-.869,1.179,4.243,4.243,0,0,1-1.34.788,6.334,6.334,0,0,1-1.737.368l-.029,1.958-1.683-.025.029-1.948a7.112,7.112,0,0,1-1.694-.408,4.5,4.5,0,0,1-1.443-.872,4.035,4.035,0,0,1-1-1.418,4.913,4.913,0,0,1-.352-2.033l3.06.045a3.024,3.024,0,0,0,.179,1.169,1.958,1.958,0,0,0,.513.755,1.9,1.9,0,0,0,.741.4,3.246,3.246,0,0,0,.851.126,2.718,2.718,0,0,0,.875-.115,1.8,1.8,0,0,0,.635-.345,1.434,1.434,0,0,0,.389-.531A1.752,1.752,0,0,0,1114.042,1257.915Z" transform="translate(-1106.662 -1245.044)" fill="#afcdfb"/>
      </g>
    </g>
    <g id="Group_1480" data-name="Group 1480" transform="translate(474.033 547.303)">
      <path id="Path_425" data-name="Path 425" d="M1141.706,1116.913a19.389,19.389,0,1,1,19.389,19.4A19.395,19.395,0,0,1,1141.706,1116.913Z" transform="translate(-1141.706 -1097.512)" fill="#fff"/>
      <g id="Group_1479" data-name="Group 1479" transform="translate(11.056 5.475)">
        <path id="Path_426" data-name="Path 426" d="M1186.336,1132.88a3.01,3.01,0,0,0-.152-1.051,2.2,2.2,0,0,0-.537-.83,4.158,4.158,0,0,0-.974-.695,10.953,10.953,0,0,0-1.463-.631,28.751,28.751,0,0,1-2.7-1.138,9.1,9.1,0,0,1-2.07-1.356,5.349,5.349,0,0,1-1.324-1.777,6.04,6.04,0,0,1,.013-4.594,5.082,5.082,0,0,1,1.245-1.712,6.346,6.346,0,0,1,1.916-1.17,8.451,8.451,0,0,1,2.487-.552l.044-3.034,2.44.035-.045,3.076a7.575,7.575,0,0,1,2.369.729,5.734,5.734,0,0,1,2.918,3.381,7.643,7.643,0,0,1,.367,2.565l-4.407-.064a3.718,3.718,0,0,0-.718-2.556,2.579,2.579,0,0,0-2.009-.873,3.283,3.283,0,0,0-1.185.174,2.218,2.218,0,0,0-.824.512,2.07,2.07,0,0,0-.484.78,3.059,3.059,0,0,0-.167.976,2.794,2.794,0,0,0,.139.952,2.067,2.067,0,0,0,.515.795,4.184,4.184,0,0,0,.982.695,14.165,14.165,0,0,0,1.523.682q1.471.575,2.675,1.173a9.188,9.188,0,0,1,2.062,1.37,5.17,5.17,0,0,1,1.77,4.174,5.521,5.521,0,0,1-.467,2.233,5.02,5.02,0,0,1-1.253,1.7,6.116,6.116,0,0,1-1.931,1.135,9.127,9.127,0,0,1-2.5.531l-.041,2.821-2.425-.036.041-2.807a10.22,10.22,0,0,1-2.44-.588,6.486,6.486,0,0,1-2.079-1.257,5.8,5.8,0,0,1-1.434-2.042,7.07,7.07,0,0,1-.507-2.928l4.408.064a4.356,4.356,0,0,0,.258,1.684,2.809,2.809,0,0,0,.739,1.089,2.731,2.731,0,0,0,1.067.583,4.687,4.687,0,0,0,1.225.181,3.906,3.906,0,0,0,1.261-.166,2.6,2.6,0,0,0,.915-.5,2.071,2.071,0,0,0,.56-.765A2.525,2.525,0,0,0,1186.336,1132.88Z" transform="translate(-1175.705 -1114.34)" fill="#afcdfb"/>
      </g>
    </g>
    <g id="Group_1482" data-name="Group 1482" transform="translate(417.25 491.438)">
      <path id="Path_429" data-name="Path 429" d="M26.915.4A26.5,26.5,0,1,1,.4,26.914,26.492,26.492,0,0,1,26.915.4Z" transform="translate(0 45.705) rotate(-60.344)" fill="#fff"/>
      <g id="Group_1481" data-name="Group 1481" transform="translate(25.307 16.603)">
        <path id="Path_427" data-name="Path 427" d="M1059.44,1002.185a4.122,4.122,0,0,0-.209-1.437,3,3,0,0,0-.734-1.135,5.7,5.7,0,0,0-1.331-.949,15.036,15.036,0,0,0-2-.862,39.325,39.325,0,0,1-3.689-1.556,12.424,12.424,0,0,1-2.829-1.853,7.313,7.313,0,0,1-1.81-2.429,8.261,8.261,0,0,1,.018-6.279,6.944,6.944,0,0,1,1.7-2.339,8.659,8.659,0,0,1,2.619-1.6,11.54,11.54,0,0,1,3.4-.755l.06-4.146,3.335.049-.061,4.2a10.357,10.357,0,0,1,3.238,1,7.835,7.835,0,0,1,3.988,4.622,10.431,10.431,0,0,1,.5,3.5l-6.024-.088a5.082,5.082,0,0,0-.981-3.493,3.525,3.525,0,0,0-2.745-1.193,4.478,4.478,0,0,0-1.619.239,3.037,3.037,0,0,0-1.126.7,2.837,2.837,0,0,0-.662,1.066,4.164,4.164,0,0,0-.228,1.334,3.819,3.819,0,0,0,.189,1.3,2.83,2.83,0,0,0,.7,1.086,5.7,5.7,0,0,0,1.341.949,19.258,19.258,0,0,0,2.082.932q2.01.785,3.656,1.6a12.564,12.564,0,0,1,2.819,1.872,7.064,7.064,0,0,1,2.419,5.7,7.549,7.549,0,0,1-.639,3.052,6.855,6.855,0,0,1-1.712,2.32,8.364,8.364,0,0,1-2.639,1.551,12.459,12.459,0,0,1-3.419.725l-.056,3.855-3.314-.048.056-3.836a13.965,13.965,0,0,1-3.334-.8,8.863,8.863,0,0,1-2.842-1.718,7.936,7.936,0,0,1-1.961-2.79,9.666,9.666,0,0,1-.692-4l6.024.088a5.953,5.953,0,0,0,.352,2.3,3.853,3.853,0,0,0,1.01,1.488,3.735,3.735,0,0,0,1.458.8,6.378,6.378,0,0,0,1.675.247,5.338,5.338,0,0,0,1.723-.227,3.562,3.562,0,0,0,1.25-.679,2.843,2.843,0,0,0,.766-1.045A3.467,3.467,0,0,0,1059.44,1002.185Z" transform="translate(-1044.909 -976.845)" fill="#afcdfb"/>
      </g>
    </g>
  </g>
</svg>
